<mxfile host="app.diagrams.net" agent="Mozilla/5.0 (Macintosh; Intel Mac OS X 10_15_7) AppleWebKit/537.36 (KHTML, like Gecko) Chrome/129.0.0.0 Safari/537.36" version="24.8.3">
  <diagram name="Page-1" id="KGYJWh3f-aDOWy_hy-EF">
    <mxGraphModel dx="954" dy="605" grid="1" gridSize="10" guides="1" tooltips="1" connect="1" arrows="1" fold="1" page="1" pageScale="1" pageWidth="827" pageHeight="1169" math="0" shadow="0">
      <root>
        <mxCell id="0" />
        <mxCell id="1" parent="0" />
        <mxCell id="8qDpov9aAVMLp1i4jiFV-1" value="" style="points=[[0.25,0,0],[0.5,0,0],[0.75,0,0],[1,0.25,0],[1,0.5,0],[1,0.75,0],[0.75,1,0],[0.5,1,0],[0.25,1,0],[0,0.75,0],[0,0.5,0],[0,0.25,0]];rounded=1;dashed=1;dashPattern=5 2 1 2;labelPosition=center;verticalLabelPosition=middle;align=center;verticalAlign=middle;fontSize=8;html=1;whiteSpace=wrap;" vertex="1" parent="1">
          <mxGeometry x="190" width="120" height="60" as="geometry" />
        </mxCell>
        <mxCell id="8qDpov9aAVMLp1i4jiFV-5" style="edgeStyle=orthogonalEdgeStyle;rounded=0;orthogonalLoop=1;jettySize=auto;html=1;exitX=1;exitY=0.5;exitDx=0;exitDy=0;" edge="1" parent="1" source="8qDpov9aAVMLp1i4jiFV-3">
          <mxGeometry relative="1" as="geometry">
            <mxPoint x="180" y="135" as="targetPoint" />
          </mxGeometry>
        </mxCell>
        <mxCell id="8qDpov9aAVMLp1i4jiFV-3" value="" style="ellipse;whiteSpace=wrap;html=1;aspect=fixed;" vertex="1" parent="1">
          <mxGeometry x="80" y="110" width="50" height="50" as="geometry" />
        </mxCell>
        <mxCell id="8qDpov9aAVMLp1i4jiFV-8" style="edgeStyle=orthogonalEdgeStyle;rounded=0;orthogonalLoop=1;jettySize=auto;html=1;" edge="1" parent="1" source="8qDpov9aAVMLp1i4jiFV-7">
          <mxGeometry relative="1" as="geometry">
            <mxPoint x="250" y="60" as="targetPoint" />
          </mxGeometry>
        </mxCell>
        <mxCell id="8qDpov9aAVMLp1i4jiFV-9" style="edgeStyle=orthogonalEdgeStyle;rounded=0;orthogonalLoop=1;jettySize=auto;html=1;exitX=1;exitY=0.5;exitDx=0;exitDy=0;exitPerimeter=0;" edge="1" parent="1" source="8qDpov9aAVMLp1i4jiFV-7">
          <mxGeometry relative="1" as="geometry">
            <mxPoint x="390" y="135" as="targetPoint" />
          </mxGeometry>
        </mxCell>
        <mxCell id="8qDpov9aAVMLp1i4jiFV-7" value="" style="points=[[0.25,0.25,0],[0.5,0,0],[0.75,0.25,0],[1,0.5,0],[0.75,0.75,0],[0.5,1,0],[0.25,0.75,0],[0,0.5,0]];shape=mxgraph.bpmn.gateway2;html=1;verticalLabelPosition=bottom;labelBackgroundColor=#ffffff;verticalAlign=top;align=center;perimeter=rhombusPerimeter;outlineConnect=0;outline=none;symbol=none;" vertex="1" parent="1">
          <mxGeometry x="180" y="100" width="140" height="70" as="geometry" />
        </mxCell>
        <mxCell id="8qDpov9aAVMLp1i4jiFV-10" style="edgeStyle=orthogonalEdgeStyle;rounded=0;orthogonalLoop=1;jettySize=auto;html=1;exitX=0.5;exitY=1;exitDx=0;exitDy=0;exitPerimeter=0;entryX=0.631;entryY=1.029;entryDx=0;entryDy=0;entryPerimeter=0;" edge="1" parent="1" source="8qDpov9aAVMLp1i4jiFV-1" target="8qDpov9aAVMLp1i4jiFV-1">
          <mxGeometry relative="1" as="geometry" />
        </mxCell>
        <mxCell id="8qDpov9aAVMLp1i4jiFV-11" value="" style="points=[[0.25,0,0],[0.5,0,0],[0.75,0,0],[1,0.25,0],[1,0.5,0],[1,0.75,0],[0.75,1,0],[0.5,1,0],[0.25,1,0],[0,0.75,0],[0,0.5,0],[0,0.25,0]];shape=mxgraph.bpmn.task;whiteSpace=wrap;rectStyle=rounded;size=10;html=1;container=1;expand=0;collapsible=0;taskMarker=abstract;" vertex="1" parent="1">
          <mxGeometry x="390" y="95" width="120" height="65" as="geometry" />
        </mxCell>
        <mxCell id="8qDpov9aAVMLp1i4jiFV-13" style="edgeStyle=orthogonalEdgeStyle;rounded=0;orthogonalLoop=1;jettySize=auto;html=1;exitX=1;exitY=0.5;exitDx=0;exitDy=0;" edge="1" parent="1" source="8qDpov9aAVMLp1i4jiFV-12">
          <mxGeometry relative="1" as="geometry">
            <mxPoint x="140" y="505" as="targetPoint" />
          </mxGeometry>
        </mxCell>
        <mxCell id="8qDpov9aAVMLp1i4jiFV-12" value="" style="ellipse;whiteSpace=wrap;html=1;aspect=fixed;" vertex="1" parent="1">
          <mxGeometry x="40" y="480" width="50" height="50" as="geometry" />
        </mxCell>
        <mxCell id="8qDpov9aAVMLp1i4jiFV-22" style="edgeStyle=orthogonalEdgeStyle;rounded=0;orthogonalLoop=1;jettySize=auto;html=1;exitX=1;exitY=0.5;exitDx=0;exitDy=0;" edge="1" parent="1" source="8qDpov9aAVMLp1i4jiFV-14">
          <mxGeometry relative="1" as="geometry">
            <mxPoint x="300" y="505" as="targetPoint" />
          </mxGeometry>
        </mxCell>
        <mxCell id="8qDpov9aAVMLp1i4jiFV-14" value="" style="rounded=1;whiteSpace=wrap;html=1;" vertex="1" parent="1">
          <mxGeometry x="140" y="480" width="110" height="50" as="geometry" />
        </mxCell>
        <mxCell id="8qDpov9aAVMLp1i4jiFV-18" value="" style="points=[[0.145,0.145,0],[0.5,0,0],[0.855,0.145,0],[1,0.5,0],[0.855,0.855,0],[0.5,1,0],[0.145,0.855,0],[0,0.5,0]];shape=mxgraph.bpmn.event;html=1;verticalLabelPosition=bottom;labelBackgroundColor=#ffffff;verticalAlign=top;align=center;perimeter=ellipsePerimeter;outlineConnect=0;aspect=fixed;outline=standard;symbol=general;" vertex="1" parent="1">
          <mxGeometry x="40" y="480" width="50" height="50" as="geometry" />
        </mxCell>
        <mxCell id="8qDpov9aAVMLp1i4jiFV-33" style="edgeStyle=orthogonalEdgeStyle;rounded=0;orthogonalLoop=1;jettySize=auto;html=1;" edge="1" parent="1" source="8qDpov9aAVMLp1i4jiFV-25">
          <mxGeometry relative="1" as="geometry">
            <mxPoint x="450" y="380" as="targetPoint" />
            <Array as="points">
              <mxPoint x="340" y="423" />
              <mxPoint x="341" y="423" />
            </Array>
          </mxGeometry>
        </mxCell>
        <mxCell id="8qDpov9aAVMLp1i4jiFV-34" style="edgeStyle=orthogonalEdgeStyle;rounded=0;orthogonalLoop=1;jettySize=auto;html=1;" edge="1" parent="1" source="8qDpov9aAVMLp1i4jiFV-25">
          <mxGeometry relative="1" as="geometry">
            <mxPoint x="340" y="660" as="targetPoint" />
          </mxGeometry>
        </mxCell>
        <mxCell id="8qDpov9aAVMLp1i4jiFV-25" value="" style="rhombus;whiteSpace=wrap;html=1;" vertex="1" parent="1">
          <mxGeometry x="300" y="465" width="80" height="85" as="geometry" />
        </mxCell>
        <mxCell id="8qDpov9aAVMLp1i4jiFV-36" value="s" style="edgeStyle=none;orthogonalLoop=1;jettySize=auto;html=1;rounded=0;" edge="1" parent="1">
          <mxGeometry width="80" relative="1" as="geometry">
            <mxPoint x="480" y="650" as="sourcePoint" />
            <mxPoint x="560" y="650" as="targetPoint" />
            <Array as="points" />
          </mxGeometry>
        </mxCell>
      </root>
    </mxGraphModel>
  </diagram>
</mxfile>
